<svg width="62" height="62" viewBox="0 0 62 62" fill="none" xmlns="http://www.w3.org/2000/svg">
<path fill-rule="evenodd" clip-rule="evenodd" d="M43.3555 24.5783C43.3555 25.2048 43.1088 25.7993 42.6659 26.2424L29.0766 39.8251C28.1909 40.7111 26.6409 40.7111 25.7552 39.8251L21.1241 35.1942C20.6813 34.7514 20.4345 34.1566 20.4345 33.5304C20.4345 32.904 20.6813 32.3091 21.1241 31.8663C21.586 31.4111 22.1871 31.1831 22.788 31.1831C23.3891 31.1831 23.9901 31.4111 24.4519 31.8663L27.4191 34.8338L39.3383 22.9142C40.2556 21.9969 41.7487 21.9969 42.6659 22.9142C43.1088 23.3636 43.3555 23.9518 43.3555 24.5783ZM30.9999 -0.000186C13.9057 -0.000186 -0.000124 13.9054 -0.000124 30.9998C-0.000124 48.0941 13.9057 61.9996 30.9999 61.9996C48.0942 61.9996 61.9999 48.0941 61.9999 30.9998C61.9999 13.9054 48.0942 -0.000186 30.9999 -0.000186ZM30.9999 57.2993C16.4995 57.2993 4.70041 45.5001 4.70041 30.9998C4.70041 16.4991 16.4995 4.70047 30.9999 4.70047C45.5002 4.70047 57.2993 16.4991 57.2993 30.9998C57.2993 45.5001 45.5002 57.2993 30.9999 57.2993Z" fill="white"/>
<path fill-rule="evenodd" clip-rule="evenodd" d="M43.3555 24.5783C43.3555 25.2048 43.1088 25.7993 42.6659 26.2424L29.0766 39.8251C28.1909 40.7111 26.6409 40.7111 25.7552 39.8251L21.1241 35.1942C20.6813 34.7514 20.4345 34.1566 20.4345 33.5304C20.4345 32.904 20.6813 32.3091 21.1241 31.8663C21.586 31.4111 22.1871 31.1831 22.788 31.1831C23.3891 31.1831 23.9901 31.4111 24.4519 31.8663L27.4191 34.8338L39.3383 22.9142C40.2556 21.9969 41.7487 21.9969 42.6659 22.9142C43.1088 23.3636 43.3555 23.9518 43.3555 24.5783ZM30.9999 -0.000186C13.9057 -0.000186 -0.000124 13.9054 -0.000124 30.9998C-0.000124 48.0941 13.9057 61.9996 30.9999 61.9996C48.0942 61.9996 61.9999 48.0941 61.9999 30.9998C61.9999 13.9054 48.0942 -0.000186 30.9999 -0.000186ZM30.9999 57.2993C16.4995 57.2993 4.70041 45.5001 4.70041 30.9998C4.70041 16.4991 16.4995 4.70047 30.9999 4.70047C45.5002 4.70047 57.2993 16.4991 57.2993 30.9998C57.2993 45.5001 45.5002 57.2993 30.9999 57.2993Z" fill="#7F37F0"/>
</svg>
