<svg width="70" height="50" viewBox="0 0 70 50" fill="none" xmlns="http://www.w3.org/2000/svg">
<path fill-rule="evenodd" clip-rule="evenodd" d="M69.9993 0.519279V12.2173C69.9993 19.4459 65.4966 24.296 58.7943 24.296C52.0289 24.296 47.4789 19.4459 47.4789 12.2173V0.519279H51.0961V12.2173C51.0961 17.4605 54.1166 20.8505 58.7943 20.8505C63.4089 20.8505 66.3804 17.4605 66.3804 12.2173V0.519279H69.9993ZM21.1337 29.8958V18.9876C22.0418 20.6198 23.2774 22.0314 24.7667 23.1551V49.3837H21.1337V45.7111C19.0302 48.4428 15.6826 49.9957 11.7626 49.9957C5.49931 49.9957 -0.000732422 45.1457 -0.000732422 37.8069C-0.000732422 30.4612 5.49931 25.6111 11.7626 25.6111C15.6826 25.6111 19.0302 27.1656 21.1337 29.8958ZM3.53798 37.8069C3.53798 43.3102 7.45952 46.7954 12.3366 46.7954C16.7833 46.7954 21.1337 43.3102 21.1337 37.8069C21.1337 32.2503 16.7833 28.7667 12.3366 28.7667C7.45952 28.7667 3.53798 32.2503 3.53798 37.8069ZM38.2992 25.6111C44.659 25.6111 49.6305 30.2732 49.87 37.195V38.5135H29.6438C29.9799 43.7344 33.9961 46.8417 38.0596 46.8417C41.248 46.8417 44.132 45.6869 45.8382 42.3604L49.121 43.1209C47.1769 47.6344 43.1765 49.9957 38.0596 49.9957C31.7963 49.9957 26.1053 45.2404 26.1053 37.8552C26.1053 30.4147 31.7963 25.6111 38.2992 25.6111ZM38.2992 28.7667C34.4738 28.7667 30.505 31.2625 29.7874 35.83H46.1883C45.518 31.2625 42.2191 28.7667 38.2992 28.7667ZM58.2385 35.5438L63.9278 36.7678C67.3697 37.5207 69.9983 39.3115 69.9983 42.843C69.9983 47.4102 66.1274 49.9994 60.4854 49.9994C55.0816 49.9994 50.7782 47.6467 50.2045 43.1256L53.8389 42.3241C54.1733 45.3856 57.0432 47.033 60.7725 47.033C64.1657 47.033 66.4125 45.4801 66.4125 43.0776C66.4125 41.1472 64.9323 40.2524 62.5399 39.7356L57.1378 38.558C53.2178 37.7569 51.0181 35.8263 51.0181 32.6241C51.0181 28.4327 54.5565 25.6078 59.9587 25.6078C65.2664 25.6078 68.7086 28.2911 69.5695 32.059L66.0784 32.8119C65.6009 30.2696 63.3535 28.5271 59.8643 28.5271C56.5165 28.5271 54.6511 30.1283 54.6511 32.3413C54.6511 34.1771 55.9424 35.0252 58.2385 35.5438ZM33.6583 -0.000671387C34.976 -0.000671387 36.2413 0.178379 37.4295 0.519879C42.4975 1.97098 46.1374 6.34013 46.1374 12.1002C46.1374 19.2117 40.5917 24.296 33.6583 24.296C26.6304 24.296 21.1321 19.2117 21.1321 12.1002C21.1321 6.34013 24.7405 1.97098 29.8468 0.519879C31.044 0.178379 32.323 -0.000671387 33.6583 -0.000671387ZM24.6705 12.1002C24.6705 17.469 28.7812 21.1418 33.6583 21.1418C38.4881 21.1418 42.5516 17.469 42.5516 12.1002C42.5516 6.77948 38.4881 3.15298 33.6583 3.15298C28.7812 3.15298 24.6705 6.77948 24.6705 12.1002ZM12.4958 15.0853L19.221 0.519879H23.2845L14.7289 19.0168L14.7273 19.0188L13.2571 22.2002L12.4714 23.8994C12.4361 23.8983 12.4005 23.8973 12.3647 23.8962C12.167 23.8902 11.9641 23.8841 11.7626 23.8841C10.5271 23.8841 9.34763 24.041 8.22441 24.332L8.65463 23.4049L9.60663 21.3419V21.3401L10.6006 19.1876V19.1858L0.00283758 0.523279L0.000947578 0.519879H4.23777L12.4941 15.0873L12.4958 15.0853Z" fill="white"/>
</svg>
